<svg width="72" height="70" viewBox="0 0 72 70" fill="none" xmlns="http://www.w3.org/2000/svg">
<path fill-rule="evenodd" clip-rule="evenodd" d="M49.4109 68.2345C48.2335 66.5025 47.174 65.5745 45.617 65.5287C43.2689 65.4592 40.8168 65.586 38.4678 65.5287C36.3992 65.4779 32.557 64.281 30.6625 63.4779C30.5162 63.4159 30.6625 67.5873 30.6625 68.2345C30.6625 68.3118 27.6976 68.4264 27.0003 68.4489C26.6039 68.4619 26.2068 68.4535 25.81 68.4447C23.8582 68.4008 21.9068 68.3321 19.9542 68.3118C16.9626 68.2805 13.971 68.2698 10.9793 68.2752C9.91006 68.2771 9.05236 67.9853 8.14349 67.3083C6.07523 65.7685 5.25457 63.6945 4.9441 61.2811C4.66228 59.0937 5.23701 57.0445 5.92782 55.0159C6.65149 52.8908 7.89756 51.0249 8.96529 49.0735C10.2098 46.7987 11.5865 44.5948 12.7997 42.3036C13.654 40.6894 14.3234 38.9778 15.0914 37.317C15.3461 36.7663 15.5741 36.1748 15.9564 35.7211C16.2703 35.348 16.7705 35.0979 17.233 34.8963C17.5507 34.758 17.8738 34.6935 17.9826 34.3192C18.1354 33.7926 18.5363 33.6361 19.0251 33.583C20.6924 33.4035 22.3597 33.2271 24.0251 33.0312C25.2055 32.8922 26.3881 32.7551 27.5586 32.5538C28.1528 32.4522 28.6053 32.5401 29.0567 32.9628C30.5403 34.3521 32.2446 35.3217 34.3167 35.4977C36.6091 35.6925 38.5682 35.1281 39.7784 32.9819C40.0869 32.4351 40.4917 32.199 41.1199 32.2724C42.9369 32.4847 44.8093 32.8018 46.4915 33.3565C49.4109 34.3192 51.7327 37.8207 52.2398 38.859C52.3735 39.1324 53.4517 40.809 53.6201 41.0538C53.8795 41.43 51.6678 44.0305 50.4663 46.9182C49.5153 49.2037 49.6226 54.0702 49.7155 56.7209C50.0522 66.3303 49.4176 68.2443 49.4109 68.2345Z" fill="white"/>
<path fill-rule="evenodd" clip-rule="evenodd" d="M64.973 42.2344C63.9587 44.6643 63.2347 47.1633 62.8826 49.7879C62.5607 52.1823 61.8802 54.5019 60.7635 56.6629C60.3874 57.3904 59.9162 58.0713 59.4613 58.7556C58.352 60.4225 56.215 60.8059 54.5637 60.2701C52.7827 59.692 51.3556 58.5414 50.1358 57.1383C49.7826 56.7316 49.6329 56.2318 49.678 55.6914C49.7792 54.4786 49.8884 53.2665 50.001 52.0548C50.1221 50.7518 50.221 49.4458 50.3829 48.1478C50.5597 46.7314 51.021 45.4055 51.9952 44.3305C52.945 43.2819 53.4811 42.0492 53.8626 40.7107C54.222 39.452 54.6779 38.2212 55.0537 36.9667C55.5391 35.3437 56.9654 33.6134 58.42 33.1151C58.6411 33.0391 59.2169 33.3277 59.4613 33.4178C61.2054 34.0605 62.5094 34.4646 64.2615 35.084C64.8431 35.2899 65.2311 36.7368 65.3556 37.3104C65.4904 37.9306 65.5512 38.5668 65.6443 39.1958C65.6138 40.2635 65.377 41.2663 64.973 42.2344Z" fill="white"/>
<path fill-rule="evenodd" clip-rule="evenodd" d="M66.0263 33.1151L65.6444 35.5718L58.7688 33.1151C59.0309 31.0476 59.6078 30.2287 60.4994 30.6584C61.391 31.0882 63.2333 31.9071 66.0263 33.1151Z" fill="white"/>
<path d="M39.9646 31.5963C39.8464 31.6026 39.7379 31.6634 39.6706 31.7608C38.4062 33.5932 36.8776 34.5823 35.068 34.7554C33.2704 34.9274 31.2125 33.9225 28.9022 31.7023C28.8202 31.6235 28.7073 31.5853 28.5942 31.5982L24.7979 32.0369C22.7545 32.2762 21.1647 32.4688 20.0281 32.6146L19.8992 32.6318C18.2844 32.8541 17.3405 33.2788 17.1712 33.9973L17.1662 34.0217L17.0538 34.0553C16.4334 34.2473 15.9593 34.5384 15.4994 35.0177C14.8479 35.6966 14.238 36.7092 13.0694 39.0042L11.467 42.2049C11.1138 42.913 10.794 43.5543 10.6457 43.8501L10.0072 45.1197C9.16084 46.7969 8.3264 48.426 7.41186 50.1811L7.17453 50.6432C4.19142 56.5393 3.61754 61.0969 4.91834 64.4451C5.81051 66.7415 7.54762 68.2547 9.09525 68.7846L9.20291 68.8199C9.89389 69.0373 12.8645 69.0971 17.8437 69.0497L20.0338 69.0239C21.2795 69.0067 22.5847 68.9849 24.043 68.9576L30.0412 68.8425C30.2613 68.8395 30.431 68.8379 30.5603 68.8376L48.2303 68.8375C49.1343 68.8375 49.75 68.6267 50.0434 68.1453L50.0516 68.1308C50.2883 67.6778 50.3109 64.7312 50.1583 58.6551L50.143 58.0633L50.2109 58.1363C51.1481 59.1218 52.8157 60.0303 55.2024 60.8876C57.7843 61.815 60.0214 60.2273 61.7609 56.9926C62.9882 54.7103 63.8987 51.5749 63.9386 50.0188L63.94 49.9152C63.94 49.8243 63.9418 49.733 63.9454 49.6412C63.9827 48.7021 64.2028 47.7275 64.6464 46.4301L64.7634 46.0965C65.0841 45.2118 66.1247 42.52 66.385 41.8081C67.3063 39.2886 67.1102 37.1184 65.7802 35.3428C65.7372 35.2854 65.6788 35.2412 65.6118 35.2154L58.906 32.6336C58.7836 32.5864 58.6455 32.6054 58.5404 32.6839L58.4475 32.7505C58.1453 32.9604 57.4766 33.379 56.4549 33.9968L56.3844 34.0411C55.3076 34.7418 54.3958 36.4836 53.6045 39.2806L53.5242 39.5685L53.147 38.7255C52.1419 36.5006 51.4977 35.2402 51.1751 34.8806C51.0203 34.7079 50.8539 34.5593 50.6525 34.4129L50.545 34.337C50.3228 34.185 50.0517 34.0265 49.6226 33.7933L48.1836 33.0218C47.9576 32.8997 47.7394 32.7809 47.5107 32.6552C45.8828 31.7606 43.3709 31.4143 39.9646 31.5963ZM47.1428 33.3245L47.5948 33.5715L49.3529 34.5162C49.7664 34.7428 50.0079 34.8885 50.2035 35.0307C50.3623 35.1462 50.4885 35.2589 50.6066 35.3906C50.9265 35.7473 51.84 37.6201 53.2703 40.8845C53.4171 41.2194 53.9052 41.1764 53.9913 40.8211L54.0871 40.4334C54.9067 37.1901 55.8493 35.2555 56.8501 34.6504L57.7012 34.1317C58.0631 33.909 58.3548 33.7259 58.5773 33.5815L58.822 33.4195L65.2326 35.8879L65.1689 35.8007C66.3335 37.3555 66.5052 39.2554 65.6677 41.5458L65.5427 41.8814C65.1573 42.9059 64.2741 45.1959 64.0173 45.9141L63.9938 45.9805C63.4816 47.4428 63.2249 48.5359 63.1823 49.6109L63.1777 49.7633L63.1762 49.9152C63.1762 51.2963 62.287 54.4016 61.0882 56.6309C59.5057 59.5737 57.5896 60.9336 55.4606 60.1688C52.0644 58.9488 50.2892 57.6608 50.0948 56.3965C50.022 55.9236 49.3221 55.987 49.3356 56.4653L49.3747 57.9003C49.4496 60.7672 49.4882 63.0214 49.4905 64.6621L49.4889 65.3493C49.4792 66.7891 49.431 67.6826 49.3913 67.7478C49.271 67.9451 48.8952 68.0738 48.2303 68.0738L30.3681 68.0749L22.6192 68.2194C21.8227 68.2333 21.0677 68.2453 20.3357 68.2558L18.5344 68.2786C13.3903 68.3345 10.1244 68.2833 9.45743 68.0988L9.43214 68.0914C8.06793 67.6622 6.45395 66.2886 5.63026 64.1685C4.38462 60.9623 4.99339 56.4751 8.08918 50.534L8.76267 49.2364C9.53423 47.7437 10.262 46.3142 11.0076 44.8314L13.5099 39.8245L13.9004 39.0566C14.9348 37.041 15.495 36.1253 16.0505 35.5465C16.4937 35.0845 16.9326 34.8513 17.6143 34.6959C17.7871 34.6565 17.9081 34.5044 17.9113 34.3309L17.9096 34.2872C17.8763 33.9392 18.5193 33.5933 19.9967 33.3893L21.6479 33.1819C22.4345 33.0857 23.3484 32.9763 24.3896 32.8539L28.5034 32.3773L28.6726 32.5356C31.0118 34.7001 33.1655 35.7047 35.1407 35.5157L35.2899 35.4997C37.1727 35.2766 38.7785 34.2634 40.094 32.4821L40.1901 32.3495L40.4568 32.3378C43.502 32.2155 45.7337 32.5502 47.1428 33.3245Z" fill="black"/>
<path d="M53.2621 40.5981L53.9779 40.8644C53.5292 42.0707 52.7906 43.4483 51.7625 45.0003L51.6136 45.2232C50.5968 46.7341 50.0776 50.4099 50.0979 56.1919L50.0991 56.4522L49.3354 56.4569C49.2975 50.3701 49.8311 46.5039 50.98 44.7968C52.0081 43.2691 52.7487 41.9211 53.2021 40.7558L53.2621 40.5981Z" fill="black"/>
<path d="M48.182 48.214C48.3913 48.1874 48.5825 48.3354 48.6091 48.5446L48.7411 49.5622C49.2321 53.2821 49.6808 55.9185 50.0849 57.4635C50.1383 57.6676 50.0161 57.8762 49.8121 57.9296C49.608 57.983 49.3994 57.8608 49.346 57.6568L49.2906 57.4394C48.8547 55.6867 48.3759 52.7569 47.8515 48.6411C47.8248 48.4319 47.9728 48.2407 48.182 48.214Z" fill="black"/>
<path d="M15.3521 55.8572C15.4076 55.6537 15.6175 55.5337 15.821 55.5891C17.7686 56.1197 19.4989 56.3962 21.0106 56.4203L21.2251 56.422C23.12 56.422 24.6022 56.5917 25.8989 57.1178C27.7723 57.8778 28.7811 59.2914 28.6151 61.4386C28.3922 64.3215 28.3922 66.646 28.6132 68.4081C28.6395 68.6174 28.4911 68.8083 28.2819 68.8346C28.0726 68.8609 27.8817 68.7125 27.8554 68.5032C27.627 66.6828 27.627 64.3097 27.8536 61.3798C27.9923 59.5861 27.1939 58.4674 25.6118 57.8255C24.4798 57.3663 23.1447 57.1997 21.4484 57.1866L21.2251 57.1857C19.5897 57.1857 17.722 56.8986 15.6202 56.3261C15.4167 56.2706 15.2967 56.0607 15.3521 55.8572Z" fill="black"/>
<path d="M18.9167 52.6959C19.127 52.7126 19.2838 52.8967 19.267 53.1069C19.1431 54.6606 18.9133 55.8244 18.569 56.6081C18.4842 56.8012 18.2589 56.889 18.0658 56.8042C17.8727 56.7193 17.7849 56.494 17.8697 56.301C18.1731 55.6105 18.3879 54.5223 18.5057 53.0462C18.5212 52.8509 18.681 52.7018 18.8721 52.6949L18.9167 52.6959Z" fill="black"/>
<path d="M28.2114 60.4806C30.0051 60.2956 30.9995 60.5086 31.0428 61.3507L31.044 61.54L30.9822 68.4594L30.2185 68.4518L30.2802 61.5393L30.2805 61.4091C30.2805 61.3539 30.2218 61.3018 29.9747 61.2456C29.6438 61.1703 29.1258 61.1621 28.4311 61.2265L28.2898 61.2404L28.2114 60.4806Z" fill="black"/>
<path d="M30.3078 63.3364C30.386 63.1405 30.6081 63.0451 30.804 63.1232C33.6953 64.2768 36.9703 65.0702 40.6296 65.5024L42.6985 65.7508C43.1656 65.8091 43.5117 65.8551 43.8784 65.907L44.1846 65.9516C47.2296 66.4072 48.1853 66.953 48.1853 68.4556C48.1853 68.6665 48.0144 68.8375 47.8035 68.8375C47.5926 68.8375 47.4216 68.6665 47.4216 68.4556C47.4216 67.4864 46.7519 67.1045 44.062 66.7053L43.364 66.6069C42.743 66.5232 42.027 66.4365 40.54 66.2608C36.8169 65.8211 33.4771 65.012 30.521 63.8326C30.3251 63.7545 30.2297 63.5323 30.3078 63.3364Z" fill="black"/>
<path d="M38.4294 65.2374L38.8898 65.1924C46.3311 64.4911 49.914 65.4438 49.3475 68.3086C49.3066 68.5155 49.1057 68.65 48.8988 68.6091C48.6919 68.5682 48.5574 68.3673 48.5983 68.1604C49.0103 66.0769 45.7494 65.2645 38.5063 65.9973C38.2965 66.0185 38.1091 65.8656 38.0879 65.6558C38.0667 65.446 38.2196 65.2587 38.4294 65.2374Z" fill="black"/>
<path d="M59.7067 30.2765L59.77 30.2792C60.4305 30.3315 62.4961 31.1409 66.1805 32.7657C66.3335 32.8331 66.4232 32.9912 66.4063 33.1542L66.399 33.1988L65.8472 35.6555C65.801 35.8612 65.5967 35.9906 65.3909 35.9444C65.1998 35.9014 65.0746 35.7222 65.0947 35.5321L65.102 35.4881L65.5851 33.3377L64.5056 32.8676C61.8251 31.7098 60.1956 31.0891 59.7538 31.043L59.7065 31.0402C59.6438 31.0402 59.5562 31.124 59.4518 31.3836C59.3126 31.7298 59.2095 32.2784 59.1495 33.0206C59.1325 33.2308 58.9483 33.3875 58.7381 33.3705C58.5279 33.3535 58.3712 33.1693 58.3882 32.9591L58.4113 32.702C58.5684 31.1129 58.9431 30.2763 59.7067 30.2765Z" fill="black"/>
<path d="M63.5579 16.3785C64.5956 16.3785 65.833 19.1568 65.4377 20.9473C65.2506 21.7949 65.0884 22.595 64.951 23.3476L64.8975 23.6468L64.9983 23.6121C69.1625 22.1943 71.3282 22.7462 71.0858 25.4065L71.0778 25.4867L71.0875 25.4964C71.8663 26.2928 72.0359 27.1426 71.5575 27.9554L71.5059 28.0384L71.5424 28.1009C72.2582 29.3681 72.1371 30.4926 71.1563 31.3645L71.0811 31.4294C70.0521 32.2931 68.3178 32.9317 65.8706 33.3659C65.663 33.4027 65.4648 33.2642 65.4279 33.0566C65.3911 32.8489 65.5296 32.6507 65.7372 32.6139C68.0644 32.201 69.6846 31.6043 70.5901 30.8444C71.3986 30.166 71.4545 29.3437 70.7278 28.231C70.6375 28.0928 70.6463 27.9123 70.7495 27.7835C71.2444 27.1655 71.1551 26.5911 70.4161 25.9087C70.3237 25.8233 70.2792 25.698 70.2972 25.5735C70.6178 23.3563 68.877 22.9671 64.5449 24.5852C64.2702 24.6878 63.9872 24.4554 64.0343 24.166C64.2024 23.1345 64.4217 22.0068 64.6919 20.7826C64.8555 20.0418 64.7046 19.1265 64.329 18.2832C64.1696 17.9253 63.9803 17.6093 63.7976 17.3879C63.748 17.3278 63.7019 17.2789 63.6635 17.241L63.6249 17.2044C63.5855 17.2731 63.5411 17.3656 63.4935 17.4796C63.3718 17.7706 63.2365 18.1827 63.0876 18.7083L62.9681 19.1436C62.8752 19.4915 62.7778 19.8779 62.6719 20.3155L62.4756 21.1461C62.3383 21.7336 62.1491 22.5457 62.0411 22.9984L61.8431 23.8169C61.5131 25.2151 61.0197 27.5221 60.3638 30.735C60.3216 30.9416 60.1199 31.0749 59.9132 31.0327C59.7066 30.9905 59.5733 30.7888 59.6155 30.5822L59.9819 28.7999C60.4602 26.4917 60.833 24.7714 61.1008 23.6373L61.343 22.6326C61.5154 21.9038 61.8106 20.6311 61.8832 20.3282L61.9752 19.9483C62.0801 19.5194 62.1773 19.1397 62.2708 18.7958L62.3107 18.6505C62.7605 17.0268 63.0315 16.3785 63.5579 16.3785Z" fill="black"/>
<path d="M64.7253 23.9482C64.8169 23.7582 65.0452 23.6784 65.2351 23.77C65.4251 23.8615 65.5049 24.0898 65.4134 24.2798C64.9424 25.257 65.0174 25.67 65.5392 25.8046C65.7879 25.8688 65.9036 26.1553 65.7692 26.3742C65.2114 27.2824 65.295 27.7209 65.9844 27.9699C66.17 28.037 66.2739 28.2345 66.2241 28.4255C66.0016 29.2785 66.172 29.6633 66.7479 29.7898C67.4821 29.9509 68.9679 29.7454 71.157 29.1592C71.3608 29.1046 71.5701 29.2255 71.6247 29.4293C71.6793 29.633 71.5583 29.8424 71.3546 29.8969L70.9668 29.9988C68.8729 30.5375 67.4256 30.7204 66.5842 30.5358C65.6472 30.3301 65.2511 29.6416 65.4049 28.619L65.4158 28.5525L65.3613 28.5229C64.6248 28.1042 64.4599 27.3839 64.8513 26.4815L64.9045 26.3651L64.8933 26.3584C64.2323 25.956 64.18 25.1309 64.6822 24.0397L64.7253 23.9482Z" fill="black"/>
<path d="M70.6357 25.2483C70.8455 25.2264 71.0333 25.3787 71.0552 25.5885C71.0755 25.7833 70.9457 25.9591 70.7591 26.0008L70.715 26.0079L65.4836 26.5541C65.2738 26.576 65.086 26.4237 65.0641 26.214C65.0438 26.0192 65.1736 25.8434 65.3602 25.8017L65.4043 25.7945L70.6357 25.2483Z" fill="black"/>
<path d="M71.2228 27.3787C71.4329 27.3605 71.618 27.516 71.6363 27.7262C71.6532 27.9213 71.5203 28.0948 71.333 28.1332L71.2888 28.1396L65.837 28.6124C65.6269 28.6306 65.4418 28.4751 65.4236 28.2649C65.4066 28.0698 65.5396 27.8963 65.7269 27.8579L65.771 27.8515L71.2228 27.3787Z" fill="black"/>
<path d="M66.7872 30.0444C66.8864 29.8583 67.1177 29.7878 67.3038 29.887C67.4899 29.9862 67.5604 30.2175 67.4612 30.4036L67.3927 30.5362C67.1224 31.0798 67.1945 31.2286 67.5993 31.2803C68.2901 31.3685 69.2501 31.2717 70.4706 30.9841C70.6758 30.9357 70.8815 31.0629 70.9299 31.2682C70.9782 31.4734 70.851 31.6791 70.6458 31.7275C69.344 32.0343 68.2991 32.1397 67.5025 32.0379C66.451 31.9036 66.2166 31.1151 66.7872 30.0444Z" fill="black"/>
<path fill-rule="evenodd" clip-rule="evenodd" d="M34.0598 7.75448C33.6214 7.89806 33.1826 8.04165 32.6212 8.22495C33.4679 8.30973 33.4679 8.30973 34.0598 7.75448ZM6.96506 11.3999C6.17304 11.031 5.36002 10.811 4.47902 11.0848C5.3077 11.1899 6.13638 11.2949 6.96506 11.3999ZM30.9494 7.56812C30.0829 5.97339 29.1916 4.40807 27.9711 3.07149C26.7311 1.71429 25.2701 0.693912 23.4275 0.334182C22.0974 0.074504 20.5336 0.751576 19.9089 1.85903C20.1758 1.68336 20.3992 1.52908 20.6295 1.3855C22.1341 0.449509 24.344 0.255897 25.9364 2.08204C26.3168 2.51853 26.6784 2.9722 27.0286 3.43275C27.527 4.08805 27.9818 4.77735 28.5 5.41623C29.1885 6.26477 29.9148 7.0839 30.9494 7.56812ZM18.7605 30.5297C18.4703 30.4465 18.3042 30.3797 18.1323 30.3526C16.5296 30.1001 15.1785 29.3291 14.0917 28.1758C13.2183 27.2486 12.4767 26.1931 11.713 25.1682C11.3311 24.6561 11.0554 24.0664 10.6884 23.5421C9.59315 21.9776 7.47945 21.1432 5.57082 21.4685C6.1486 22.0112 6.79512 22.5294 7.32899 23.1453C7.88615 23.7873 8.33677 24.522 8.83015 25.219C9.20058 25.7425 9.55152 26.2798 9.93493 26.7931C10.8388 28.004 11.936 29.011 13.205 29.8332C14.1432 30.4412 15.1587 30.8429 16.2734 30.9468C17.0845 31.0228 17.8952 31.0178 18.7605 30.5297ZM37.8385 25.5302C36.2258 25.6719 34.8968 25.1059 33.6771 24.2383C33.0993 23.8278 32.9638 23.5009 33.22 23.3164C33.6519 23.0056 33.8471 23.4856 34.1484 23.6326C34.9392 24.0187 35.7175 24.4518 36.5466 24.7313C37.4272 25.0284 37.9584 24.7137 38.3926 23.8713C39.4485 21.8229 39.7631 19.5855 40.0591 17.3438C40.1145 16.9211 40.1255 16.4923 40.1695 16.0672C40.3447 14.3694 39.3041 12.8694 37.6555 12.5627C36.3415 12.3183 35.0366 12.4524 33.7917 12.9629C32.3814 13.5411 31.6856 14.6627 31.4752 16.1237C31.371 16.8482 31.3018 17.5783 31.2003 18.3031C31.1598 18.5895 31.2075 19.0088 30.8042 19.0138C30.6106 19.0161 30.3922 18.7293 30.223 18.5395C30.0313 18.3245 29.8816 18.0713 29.7167 17.8388C29.0067 18.2966 28.8349 18.8064 29.2152 19.3953C29.4031 19.6851 29.709 19.9956 30.0225 20.0865C30.7229 20.2897 30.8348 20.7449 30.758 21.3452C30.5155 23.25 30.2864 25.1571 30.0126 27.0577C29.8518 28.1732 29.6185 29.2783 29.4111 30.3873C29.3722 30.5954 29.3325 30.8142 29.234 30.996C29.1763 31.1026 28.9911 31.2141 28.8815 31.1973C28.7704 31.1805 28.6054 31.014 28.5993 30.9055C28.584 30.6386 28.6356 30.3652 28.6806 30.0978C28.8013 29.3761 28.925 28.6547 29.0625 27.9368C29.148 27.4908 28.9758 27.1914 28.6306 26.916C27.4013 25.9338 26.1621 25.9579 25.0169 27.0382C24.6178 27.4144 24.2516 27.8268 23.8842 28.2347C22.8314 29.4021 21.6143 30.2674 19.9925 30.4301C19.787 30.4507 19.577 30.532 19.391 30.6275C17.4896 31.6024 15.6085 31.4199 13.7694 30.4858C12.0211 29.598 10.6235 28.2881 9.48966 26.698C8.97565 25.9781 8.54604 25.1938 7.99422 24.5056C7.33013 23.6777 6.63282 22.8574 5.84042 22.1574C5.35811 21.7309 4.69899 21.3986 4.0685 21.2638C1.917 20.8044 0.784724 19.4159 0.259258 17.3962C-0.06954 16.1318 -0.115747 14.8643 0.296682 13.6098C0.658704 12.5093 1.38886 11.7928 2.45086 11.267C4.18078 10.4101 5.86028 10.5315 7.58637 11.165C8.88362 11.6412 10.2034 11.9666 11.6083 11.891C12.7876 11.8276 13.7476 11.3399 14.4419 10.4303C14.9929 9.70817 15.4554 8.90813 15.8762 8.10008C16.3967 7.09993 16.7736 6.02265 17.322 5.03931C17.9578 3.89788 18.6196 2.7488 19.4353 1.7353C20.8658 -0.0419691 22.7497 -0.429576 24.8626 0.460202C26.5394 1.16668 27.8745 2.3169 28.9307 3.77415C29.6643 4.78575 30.3204 5.85386 30.9956 6.90709C31.7028 8.01072 31.9911 8.11153 33.2616 7.70865C34.3637 7.35923 35.4872 7.07397 36.579 6.69476C39.2281 5.77405 42.3156 8.46019 42.1037 11.1689C42.0197 12.2473 41.763 13.268 41.3044 14.2495C41.1421 14.5962 41.0168 14.9911 41 15.3695C40.9233 17.1437 40.6789 18.8905 40.3211 20.6284C40.0358 22.0154 39.6165 23.3527 38.894 24.5667C38.6247 25.0196 38.6297 25.3916 38.7645 25.8536C39.2193 27.4044 39.6505 28.9625 40.0797 30.5206C40.163 30.8238 40.4005 31.258 39.9308 31.3729C39.4878 31.4814 39.458 30.9842 39.3698 30.6878C38.9287 29.1962 38.511 27.6981 38.0802 26.2034C38.0221 26.0003 37.9377 25.8048 37.8385 25.5302Z" fill="black"/>
<path fill-rule="evenodd" clip-rule="evenodd" d="M37.2806 16.9749L37.8641 19.2834L37.0129 19.3685L37.2806 16.9749Z" fill="black"/>
<path fill-rule="evenodd" clip-rule="evenodd" d="M37.2821 16.9972L37.0178 19.3637L37.8591 19.2797L37.2821 16.9972ZM37.0129 19.3725C37.0121 19.3725 37.0109 19.3721 37.0102 19.3714C37.0094 19.3702 37.009 19.3691 37.009 19.3679L37.2763 16.9743C37.2767 16.9724 37.2783 16.9709 37.2802 16.9709C37.2821 16.9709 37.284 16.972 37.2844 16.9736L37.8679 19.282C37.8683 19.2832 37.8679 19.2847 37.8675 19.2855C37.8667 19.2866 37.8656 19.287 37.8644 19.2874L37.0136 19.3725H37.0129Z" fill="black"/>
<path fill-rule="evenodd" clip-rule="evenodd" d="M36.6076 15.2794C36.6076 15.2794 36.6428 15.9863 36.4862 16.1344C35.8294 16.0619 34.3507 16.3059 33.6091 16.6332C33.9009 15.9561 36.6076 15.2794 36.6076 15.2794Z" fill="black"/>
<path fill-rule="evenodd" clip-rule="evenodd" d="M36.604 15.2844C36.5417 15.3005 35.8929 15.4666 35.2193 15.706C34.2978 16.0345 33.7448 16.3518 33.6173 16.6252C34.3406 16.3098 35.8085 16.0562 36.4848 16.1307C36.6303 15.989 36.6066 15.3475 36.604 15.2844ZM33.6093 16.6374C33.6081 16.6374 33.6073 16.6367 33.6066 16.6359C33.6051 16.6348 33.6051 16.6332 33.6054 16.6313C33.7269 16.3499 34.2691 16.036 35.2166 15.6988C35.9219 15.4479 36.6001 15.2772 36.6066 15.2757C36.6082 15.2753 36.6093 15.2757 36.6101 15.2764C36.6112 15.2768 36.612 15.278 36.612 15.2791C36.6131 15.3081 36.6456 15.9898 36.489 16.1376C36.4882 16.1383 36.4867 16.1391 36.4856 16.1387C35.8081 16.0635 34.3306 16.3197 33.6112 16.6371C33.6104 16.6371 33.61 16.6374 33.6093 16.6374Z" fill="black"/>
<path fill-rule="evenodd" clip-rule="evenodd" d="M35.4763 18.4434C35.2647 18.4564 35.0539 18.4171 34.8572 18.3522C34.9298 18.3736 35.0073 18.3854 35.0879 18.3854C35.49 18.3854 35.8173 18.0982 35.8173 17.7458C35.8173 17.6037 35.7069 17.4338 35.6027 17.3161C36.1182 17.3635 36.5707 17.632 36.7376 17.7423C36.5883 17.9195 36.1232 18.4037 35.4763 18.4434ZM34.378 17.5701C34.3661 17.6308 34.3589 17.6973 34.3589 17.7458C34.3589 18.0016 34.5311 18.2227 34.779 18.3247C34.3998 18.1842 34.0858 17.9581 33.9518 17.8527C34.0297 17.7862 34.1752 17.6747 34.378 17.5701ZM36.9037 17.6602C36.8766 17.64 36.2297 17.1565 35.4702 17.1466C34.4261 17.1347 33.7964 17.7725 33.7697 17.7996C33.7544 17.8153 33.7464 17.837 33.7471 17.8592C33.7479 17.8809 33.7578 17.9019 33.7742 17.9165C33.8075 17.9459 34.5663 18.608 35.393 18.608C35.424 18.608 35.4553 18.6069 35.4862 18.605C36.3534 18.5511 36.898 17.8038 36.9209 17.7721C36.9465 17.7362 36.9389 17.6869 36.9037 17.6602Z" fill="black"/>
<path fill-rule="evenodd" clip-rule="evenodd" d="M39.036 18.2805C38.8504 18.2935 38.6644 18.248 38.4941 18.177C38.5235 18.1827 38.5533 18.1865 38.5831 18.1865C38.9073 18.1865 39.1704 17.923 39.1704 17.5992C39.1704 17.4575 39.1208 17.3246 39.0314 17.2196C39.0673 17.2173 39.104 17.2162 39.1406 17.2162H39.141C39.5496 17.2162 39.9239 17.5045 40.0549 17.6179C39.9384 17.7794 39.5607 18.2427 39.036 18.2805ZM37.8128 17.7302C37.8552 17.6939 37.919 17.6431 38.0011 17.5874C38.0172 17.7233 38.0756 17.86 38.168 17.9712C38.1928 18.0017 38.2196 18.0281 38.2474 18.0521C38.0508 17.936 37.8942 17.8039 37.8128 17.7302ZM40.2187 17.5476C40.1981 17.5274 39.7142 17.0543 39.141 17.0543H39.1406C38.2535 17.0543 37.6609 17.6469 37.636 17.6721C37.6051 17.7035 37.6051 17.7539 37.6357 17.7856C37.6429 17.7928 37.8109 17.9643 38.0672 18.1312C38.3861 18.3393 38.6893 18.4447 38.9692 18.4447C38.9955 18.4447 39.0215 18.4439 39.0475 18.442C39.7646 18.3905 40.2118 17.6779 40.2305 17.6477C40.2504 17.6156 40.2454 17.574 40.2187 17.5476Z" fill="black"/>
<path fill-rule="evenodd" clip-rule="evenodd" d="M37.7337 15.2795C37.7337 15.2795 37.6982 15.9864 37.8551 16.1346C38.5116 16.062 39.569 16.2361 40.3106 16.563C40.0188 15.8863 37.7337 15.2795 37.7337 15.2795Z" fill="black"/>
<path fill-rule="evenodd" clip-rule="evenodd" d="M38.183 16.1141C38.8375 16.1141 39.6876 16.286 40.3028 16.5552C40.1768 16.2818 39.6964 15.9767 38.9112 15.6712C38.3403 15.4493 37.7946 15.3 37.7373 15.2847C37.7351 15.3481 37.7114 15.9889 37.8569 16.1306C37.9577 16.1195 38.0673 16.1141 38.183 16.1141ZM40.3105 16.5674L40.3089 16.5671C39.5853 16.2482 38.5309 16.0637 37.8557 16.1386C37.8546 16.139 37.8534 16.1382 37.8527 16.1378C37.7866 16.0752 37.7461 15.9121 37.7316 15.6517C37.7209 15.4585 37.7297 15.2809 37.7297 15.279C37.7297 15.2782 37.7305 15.2771 37.7312 15.2763C37.7324 15.2755 37.7335 15.2752 37.7351 15.2755C37.7404 15.2771 38.3132 15.4298 38.9143 15.6635C39.4696 15.8797 40.163 16.2108 40.3143 16.5617C40.315 16.5632 40.3147 16.5651 40.3135 16.5663C40.3127 16.5671 40.3116 16.5674 40.3105 16.5674Z" fill="black"/>
<path fill-rule="evenodd" clip-rule="evenodd" d="M35.8865 20.2264C36.2901 20.6083 36.6182 20.8206 37.165 20.8569C37.7119 20.8936 38.0949 20.6935 38.0949 20.6935C38.0949 20.6935 37.6572 21.4362 37.1283 21.5741C36.0346 21.8601 36.0862 21.002 35.8865 20.2264Z" fill="black"/>
<path fill-rule="evenodd" clip-rule="evenodd" d="M35.8939 20.2391C35.9252 20.3613 35.95 20.4858 35.9741 20.6061C36.0535 21.0002 36.1284 21.3729 36.3907 21.5364C36.5626 21.6441 36.8035 21.6551 37.1274 21.5704C37.6123 21.4436 38.0255 20.7986 38.0843 20.7031C38.0137 20.7367 37.6521 20.8933 37.1648 20.8612C36.6149 20.8242 36.2918 20.6141 35.8939 20.2391ZM36.7459 21.6345C36.6027 21.6345 36.4835 21.604 36.3865 21.5433C36.1211 21.3775 36.0459 21.0037 35.9661 20.6076C35.9412 20.4832 35.9153 20.3541 35.8828 20.2277C35.882 20.2258 35.8832 20.2242 35.8847 20.2231C35.8859 20.2223 35.8882 20.2223 35.8893 20.2239C36.291 20.6034 36.613 20.8162 37.1655 20.8528C37.7051 20.8891 38.0893 20.692 38.0931 20.6901C38.095 20.689 38.0969 20.6894 38.0977 20.6909C38.0992 20.692 38.0992 20.694 38.0985 20.6955C38.0943 20.7031 37.654 21.4409 37.1296 21.5784C36.9861 21.6154 36.8585 21.6345 36.7459 21.6345Z" fill="black"/>
</svg>
