<svg xmlns="http://www.w3.org/2000/svg" viewBox="0 0 24 24" fill="none">
  <g stroke="#06232C" stroke-width="1.5" stroke-linecap="round" stroke-linejoin="round">
    <path d="M1.5 15V7a3 3 0 013-3h15a3 3 0 013 3v8a1 1 0 01-1 1h-17a1 1 0 01-1-1z"/>
    <line x1="1.5" y1="11" x2="22.5" y2="11"/>
    <rect x="3.5" y="6" width="3.5" height="3.5" rx=".5"/>
    <rect x="8" y="6" width="3.5" height="3.5" rx=".5"/>
    <rect x="12.5" y="6" width="3.5" height="3.5" rx=".5"/>
    <rect x="17" y="6" width="3.5" height="3.5" rx=".5"/>
    <circle cx="6.5" cy="19.5" r="2.3"/>
    <circle cx="17.5" cy="19.5" r="2.3"/>
    <line x1="8.8" y1="19.5" x2="15.2" y2="19.5"/>
  </g>
  <circle cx="6.5" cy="19.5" r=".6" fill="#06232C"/>
  <circle cx="17.5" cy="19.5" r=".6" fill="#06232C"/>
</svg>
