<svg xmlns="http://www.w3.org/2000/svg" viewBox="0 0 18 17.9736" fill="none">
<path d="M17.4375 4.68457C17.7539 4.89551 18 5.24707 18 5.63379C18 6.23145 17.5078 6.72363 16.875 6.72363H1.08984C0.457031 6.72363 0 6.23145 0 5.63379C0 5.24707 0.210938 4.89551 0.527344 4.68457L8.71875 0.0791016C8.89453 -0.0263672 9.07031 -0.0263672 9.24609 0.0791016L17.4375 4.68457ZM16.7695 5.59863L9 1.2041L1.19531 5.59863H7.20703C7.06641 5.35254 7.03125 5.07129 7.03125 4.75488C7.03125 3.7002 7.91016 2.78613 9 2.78613C10.0547 2.78613 10.9688 3.7002 10.9688 4.75488C10.9688 5.07129 10.8984 5.35254 10.7578 5.59863H16.7695ZM9 5.59863C9.45703 5.59863 9.84375 5.24707 9.84375 4.75488C9.84375 4.29785 9.45703 3.91113 9 3.91113C8.50781 3.91113 8.15625 4.29785 8.15625 4.75488C8.15625 5.24707 8.50781 5.59863 9 5.59863ZM2.25 7.84863H3.375V12.3486H6.1875V7.84863H7.3125V12.3486H10.6875V7.84863H11.8125V12.3486H14.625V7.84863H15.75V12.3486C16.0312 12.3486 16.3125 12.6299 16.3125 12.9111C16.3125 13.2275 16.0312 13.4736 15.75 13.4736H2.25C1.93359 13.4736 1.6875 13.2275 1.6875 12.9111C1.6875 12.6299 1.93359 12.3486 2.25 12.3486V7.84863ZM16.5938 14.5986C16.875 14.5986 17.1562 14.8799 17.1562 15.1611C17.1562 15.4775 16.875 15.7236 16.5938 15.7236H1.40625C1.08984 15.7236 0.84375 15.4775 0.84375 15.1611C0.84375 14.8799 1.08984 14.5986 1.40625 14.5986H16.5938ZM17.4375 16.8486C17.7188 16.8486 18 17.1299 18 17.4111C18 17.7275 17.7188 17.9736 17.4375 17.9736H0.5625C0.246094 17.9736 0 17.7275 0 17.4111C0 17.1299 0.246094 16.8486 0.5625 16.8486H17.4375Z" fill="#06232C"/>
</svg>
