<svg xmlns="http://www.w3.org/2000/svg" viewBox="0 0 18 18" fill="none">
<path d="M9 0C4.00781 0 0 4.04297 0 9C0 13.9922 4.00781 18 9 18C13.957 18 18 13.9922 18 9C18 4.04297 13.957 0 9 0ZM9 16.875C4.64062 16.875 1.125 13.3594 1.125 9C1.125 4.67578 4.64062 1.125 9 1.125C13.3242 1.125 16.875 4.67578 16.875 9C16.875 13.3594 13.3242 16.875 9 16.875ZM8.4375 12.0938C7.94531 12.0938 7.59375 12.4805 7.59375 12.9375C7.59375 13.4297 7.94531 13.7812 8.4375 13.7812C8.89453 13.7812 9.28125 13.4297 9.28125 12.9375C9.28125 12.4805 8.89453 12.0938 8.4375 12.0938ZM10.0195 4.5H7.94531C6.64453 4.5 5.625 5.55469 5.625 6.85547V7.17188C5.625 7.48828 5.87109 7.73438 6.1875 7.73438C6.46875 7.73438 6.75 7.48828 6.75 7.17188V6.85547C6.75 6.1875 7.27734 5.625 7.94531 5.625H10.0195C10.6875 5.625 11.25 6.1875 11.25 6.85547C11.25 7.27734 11.0039 7.69922 10.6172 7.91016L8.50781 8.96484C8.12109 9.17578 7.875 9.59766 7.875 10.0547V10.6875C7.875 11.0039 8.12109 11.25 8.4375 11.25C8.71875 11.25 9 11.0039 9 10.6875V10.0547C9 10.0195 9 9.98438 9.03516 9.94922L11.1445 8.89453C11.8828 8.47266 12.375 7.69922 12.375 6.85547C12.375 5.55469 11.3203 4.5 10.0195 4.5Z" fill="#06232C"/>
</svg>
