<svg xmlns="http://www.w3.org/2000/svg" viewBox="0 0 13.5 17.9736" fill="none">
<path d="M9.5625 6.75C9.5625 8.33203 8.29688 9.5625 6.75 9.5625C5.16797 9.5625 3.9375 8.33203 3.9375 6.75C3.9375 5.20312 5.16797 3.9375 6.75 3.9375C8.29688 3.9375 9.5625 5.20312 9.5625 6.75ZM6.75 8.4375C7.66406 8.4375 8.4375 7.69922 8.4375 6.75C8.4375 5.83594 7.66406 5.0625 6.75 5.0625C5.80078 5.0625 5.0625 5.83594 5.0625 6.75C5.0625 7.69922 5.80078 8.4375 6.75 8.4375ZM13.5 6.75C13.5 9.84375 9.38672 15.293 7.55859 17.5781C7.13672 18.1055 6.32812 18.1055 5.90625 17.5781C4.07812 15.293 0 9.84375 0 6.75C0 3.02344 2.98828 0 6.75 0C10.4766 0 13.5 3.02344 13.5 6.75ZM6.75 1.125C3.62109 1.125 1.125 3.65625 1.125 6.75C1.125 7.3125 1.30078 8.05078 1.6875 9C2.07422 9.91406 2.60156 10.8984 3.23438 11.8828C4.42969 13.8164 5.83594 15.6797 6.75 16.8047C7.62891 15.6797 9.03516 13.8164 10.2305 11.8828C10.8633 10.8984 11.3906 9.91406 11.7773 9C12.1641 8.05078 12.375 7.3125 12.375 6.75C12.375 3.65625 9.84375 1.125 6.75 1.125Z" fill="#06232C"/>
</svg>
