<svg xmlns="http://www.w3.org/2000/svg" viewBox="0 0 20.25 13.5" fill="none">
<path d="M4.5 4.5C4.5 3.90234 4.99219 3.375 5.625 3.375H14.625C15.2227 3.375 15.75 3.90234 15.75 4.5V9C15.75 9.63281 15.2227 10.125 14.625 10.125H5.625C4.99219 10.125 4.5 9.63281 4.5 9V4.5ZM5.625 9H14.625V4.5H5.625V9ZM20.25 2.25V5.0625C19.3008 5.0625 18.5625 5.83594 18.5625 6.75C18.5625 7.69922 19.3008 8.4375 20.25 8.4375V11.25C20.25 12.5156 19.2305 13.5 18 13.5H2.25C0.984375 13.5 0 12.5156 0 11.25V8.4375C0.914062 8.4375 1.6875 7.69922 1.6875 6.75C1.6875 5.83594 0.914062 5.0625 0 5.0625V2.25C0 1.01953 0.984375 0 2.25 0H18C19.2305 0 20.25 1.01953 20.25 2.25ZM1.125 4.18359C2.10938 4.60547 2.8125 5.625 2.8125 6.75C2.8125 7.91016 2.10938 8.89453 1.125 9.35156V11.25C1.125 11.8828 1.61719 12.375 2.25 12.375H18C18.5977 12.375 19.125 11.8828 19.125 11.25V9.35156C18.1055 8.89453 17.4375 7.91016 17.4375 6.75C17.4375 5.625 18.1055 4.60547 19.125 4.18359V2.25C19.125 1.65234 18.5977 1.125 18 1.125H2.25C1.61719 1.125 1.125 1.65234 1.125 2.25V4.18359Z" fill="#06232C"/>
</svg>
