<svg width="24" height="24" viewBox="0 0 24 24" fill="none" xmlns="http://www.w3.org/2000/svg">
<path d="M12 3.25C7.00781 3.25 3 7.29297 3 12.25C3 17.2422 7.00781 21.25 12 21.25C16.957 21.25 21 17.2422 21 12.25C21 7.29297 16.957 3.25 12 3.25ZM12 20.125C10.3125 20.125 8.76562 19.6328 7.5 18.7539C7.64062 16.9961 9.08203 15.625 10.875 15.625H13.125C14.8828 15.625 16.3242 16.9961 16.4648 18.7539C15.1992 19.6328 13.6523 20.125 12 20.125ZM17.4492 17.9102C16.957 15.9766 15.1992 14.5 13.125 14.5H10.875C8.76562 14.5 7.00781 15.9766 6.51562 17.9102C5.03906 16.4688 4.125 14.4648 4.125 12.25C4.125 7.92578 7.64062 4.375 12 4.375C16.3242 4.375 19.875 7.92578 19.875 12.25C19.875 14.4648 18.9258 16.4688 17.4492 17.9102ZM12 7.75C10.418 7.75 9.1875 9.01562 9.1875 10.5625C9.1875 12.1445 10.418 13.375 12 13.375C13.5469 13.375 14.8125 12.1445 14.8125 10.5625C14.8125 9.01562 13.5469 7.75 12 7.75ZM12 12.25C11.0508 12.25 10.3125 11.5117 10.3125 10.5625C10.3125 9.64844 11.0508 8.875 12 8.875C12.9141 8.875 13.6875 9.64844 13.6875 10.5625C13.6875 11.5117 12.9141 12.25 12 12.25Z" fill="#536B75"/>
</svg>
