<svg width="90" height="64" viewBox="0 0 90 64" fill="none" xmlns="http://www.w3.org/2000/svg">
<path fill-rule="evenodd" clip-rule="evenodd" d="M74.9663 28.2916C74.9566 28.3541 74.947 28.4162 74.9373 28.4784C75.7612 28.5339 76.5848 28.5901 77.4084 28.6446C77.8213 28.6714 78.1221 28.485 78.3412 28.0472L74.9663 28.2916ZM89.205 29.9217C89.2122 29.8351 89.2193 29.7485 89.2265 29.6619C88.1132 29.0838 86.9118 28.994 85.5221 29.0077C86.6093 29.333 87.5224 29.6197 88.4455 29.8745C88.684 29.9409 88.9511 29.9088 89.205 29.9217ZM80.8159 28.2713C81.6932 28.189 82.5769 28.1464 83.446 28.0126C84.2882 27.8831 85.1136 27.6499 85.9501 27.4802C86.7948 27.3091 87.6441 27.1604 88.5178 26.997C88.318 26.4894 87.9564 26.458 87.6219 26.473C86.9974 26.5016 86.3704 26.5508 85.7535 26.6461C84.0311 26.9125 82.4011 27.4739 80.8159 28.2713ZM50.3827 50.5936C50.8106 50.1789 51.2113 49.8636 51.5214 49.4789C53.2312 47.3572 54.9238 45.2226 56.6086 43.0821C56.8499 42.7759 57.0132 42.4121 57.2188 42.0791C57.4805 41.6556 57.4032 41.2851 57.0498 40.9524C56.8893 40.8012 56.7264 40.6525 56.5305 40.4713C56.3293 40.6365 56.1116 40.7464 55.9966 40.9206C54.0111 43.9448 51.7076 46.7378 49.356 49.5043C49.7123 49.8828 50.0153 50.2043 50.3827 50.5936ZM6.72051 53.8629C8.66954 54.9333 17.1671 56.0603 19.152 55.5328V52.9597C17.0869 52.8926 15.0584 52.8864 13.0399 52.7443C11.0311 52.6029 9.03263 52.3253 6.9794 52.1015C6.89238 52.6936 6.80823 53.2652 6.72051 53.8629ZM51.3831 50.853C52.6081 51.9343 53.8589 53.0721 55.1501 54.1642C55.9483 54.8397 56.7712 55.4992 57.6488 56.0697C58.8344 56.8409 60.5686 57.1601 62.0758 55.81C62.5796 55.3589 63.1142 54.905 63.4852 54.3558C64.6009 52.7045 65.7611 51.0653 66.6903 49.3141C69.3584 44.2845 72.1837 39.3429 75.164 34.4848C75.6302 33.7247 76.2042 33.0171 76.7964 32.3415C77.6046 31.4194 78.6069 30.8207 79.9146 30.8182C80.6863 30.8168 81.4572 30.7376 82.2289 30.7282C83.745 30.71 85.2615 30.7243 86.7776 30.7044C87.1049 30.7002 87.4314 30.6091 87.7584 30.5578C87.7634 30.4991 87.7687 30.4408 87.7741 30.3822C87.5181 30.3005 87.2649 30.208 87.0053 30.1381C85.0541 29.6137 83.0403 29.6518 81.0461 29.5296C79.2486 29.4196 77.4492 29.3376 75.6495 29.2786C73.8777 29.2206 72.1042 29.2035 70.3313 29.1787C70.1351 29.1759 69.9385 29.2479 69.7401 29.2737C69.194 29.3442 68.7805 29.6029 68.4947 30.0662C68.0822 30.7348 67.6368 31.3852 67.2479 32.0667C65.7038 34.7714 64.1838 37.4887 62.6397 40.1938C61.7639 41.7285 60.8798 43.2602 59.9577 44.7691C59.523 45.4799 59.1474 45.5033 58.5075 44.9664C58.0352 44.5701 57.5769 44.1571 57.1375 43.7734C55.1985 46.159 53.3032 48.4908 51.3831 50.853ZM49.4925 50.8115C49.7195 53.1014 49.9354 55.3187 50.1599 57.5361C50.2863 58.7842 50.4285 60.0313 50.5606 61.2791C50.5724 61.3887 50.5939 61.5123 50.5549 61.608C50.5198 61.6942 50.4138 61.7975 50.3286 61.8073C50.2412 61.8174 50.0783 61.7413 50.0575 61.6715C49.954 61.3262 49.8506 60.9739 49.813 60.6178C49.6275 58.8697 49.5057 57.1147 49.2808 55.3715C48.9414 52.7443 48.5557 50.122 48.1493 47.5035C47.9187 46.0158 47.6065 44.5401 47.3332 43.0584C47.2799 42.7675 47.147 42.4488 47.5886 42.269C47.9667 42.4223 47.9649 42.7777 48.0254 43.094C48.3233 44.6563 48.6145 46.2201 48.9149 47.7817C48.9604 48.0188 49.0406 48.2492 49.1455 48.6326C51.3144 46.034 53.4754 43.5974 55.1498 40.7597C53.4425 38.6531 51.772 36.5667 50.0715 34.504C49.2647 33.5254 48.4075 32.5866 47.5588 31.6418C47.2201 31.2644 46.8416 30.9209 46.4832 30.5602C45.391 29.4605 44.0353 28.9099 42.4913 28.8677C41.3837 28.8369 40.2726 28.9343 39.1422 28.9752C38.9409 29.8571 38.7909 30.6507 38.5742 31.4264C38.3272 32.3129 38.0794 33.2059 37.7303 34.0568C36.4644 37.1382 33.6095 37.5519 31.1656 36.4162C30.5565 36.133 29.9943 35.7099 29.489 35.2668C27.69 33.6888 26.219 31.8363 24.8802 29.8798C24.7864 29.7429 24.6908 29.6075 24.5905 29.4636C24.4512 29.4737 24.3316 29.4577 24.231 29.4929C21.5153 30.4489 18.8036 31.4153 16.0861 32.367C14.9922 32.7503 14.2359 33.4741 13.8173 34.5082C13.1255 36.2189 12.4179 37.9276 11.8185 39.6701C10.5555 43.3447 9.35812 47.0405 8.13564 50.7287C8.07548 50.9092 8.03359 51.0957 7.95194 51.3959C11.6924 52.1221 15.4193 52.1455 19.2433 52.1717C19.2902 51.6944 19.3339 51.2626 19.374 50.8303C19.4259 50.2749 19.4535 49.7156 19.5401 49.1653C19.5623 49.0229 19.7661 48.9077 19.8864 48.7802C19.9902 48.9202 20.1757 49.0571 20.1825 49.2013C20.2044 49.6737 20.1729 50.1492 20.141 50.6226C19.89 54.3014 19.818 57.9829 19.9261 61.6684C19.9433 62.2535 19.9294 62.84 19.9143 63.4255C19.9082 63.6678 19.934 63.995 19.5784 63.9999C19.162 64.0061 19.205 63.6511 19.2021 63.3798C19.1817 61.7612 19.1674 60.1423 19.1548 58.5234C19.1495 57.8608 19.1538 57.1981 19.1538 56.4468C15.6457 56.4475 12.2801 56.0516 8.8475 55.3564C8.79844 56.4485 8.81993 57.4408 8.9184 58.4365C9.07417 60.0194 9.20952 61.6041 9.35168 63.1885C9.36421 63.3267 9.38462 63.4723 9.35383 63.6036C9.33234 63.6944 9.23208 63.8312 9.16225 63.8337C9.04194 63.8375 8.8629 63.7872 8.8074 63.6999C8.72361 63.5673 8.70463 63.3854 8.69174 63.2216C8.49264 60.7201 8.29964 58.2179 8.10377 55.7157C8.09088 55.5509 8.06474 55.3872 8.04254 55.2011C7.63075 55.0579 7.22218 54.935 6.82972 54.7745C6.1508 54.4965 6.03944 54.3304 6.10282 53.6297C6.15259 53.0749 6.22707 52.5194 6.34345 51.9748C6.39179 51.7499 6.54433 51.4078 6.7094 51.3704C7.26156 51.2448 7.30704 50.8195 7.43702 50.432C8.61117 46.9344 9.77314 43.4326 10.9591 39.9389C11.4443 38.5099 11.9811 37.097 12.4971 35.6774C12.5733 35.4676 12.6757 35.2665 12.7513 35.056C13.4077 33.2276 14.6373 32.0039 16.5573 31.3838C19.1624 30.5431 21.7291 29.5904 24.3291 28.7339C25.1341 28.469 25.9931 28.3583 26.8296 28.1886C26.9309 28.168 27.0473 28.2197 27.154 28.2378C27.1096 28.7462 27.1096 28.7462 25.4893 29.2688C25.5562 29.4371 25.591 29.6232 25.6916 29.7653C26.9485 31.5357 28.3002 33.2307 29.9341 34.6922C30.9733 35.6212 32.1317 36.2741 33.6052 36.2856C34.7582 36.295 35.6491 35.8391 36.3577 34.9924C36.5189 34.8001 36.6553 34.5805 36.7681 34.3563C37.5838 32.7395 37.9952 31.0103 38.2878 29.302C38.0214 28.8544 37.1176 29.2737 37.2386 28.3838C39.3695 28.4812 41.4557 27.9229 43.5734 28.3042C44.8227 28.5294 45.9607 28.9832 46.814 29.8951C48.5489 31.749 50.2516 33.6329 51.9102 35.5517C53.0529 36.8739 54.097 38.277 55.1884 39.6411C55.326 39.8132 55.4839 39.9703 55.6572 40.1623C55.824 40.0503 55.9615 39.9605 56.0962 39.8666C56.4002 39.6551 56.7056 39.69 56.9545 39.9277C57.2793 40.2385 57.5901 40.5691 57.8655 40.9217C58.1659 41.3061 58.2046 41.738 57.9646 42.1807C57.8175 42.4516 57.6857 42.7295 57.4945 43.1093C58.0284 43.5828 58.582 44.0736 59.2229 44.6417C59.5842 44.0485 59.9004 43.5587 60.1873 43.0535C62.3067 39.3192 64.4151 35.579 66.54 31.8475C66.9421 31.1405 67.423 30.4764 67.828 29.7712C68.2598 29.0206 68.9527 28.5932 69.7652 28.5768C71.2484 28.5475 72.6202 28.0409 74.0532 27.8129C75.7512 27.5424 77.4542 27.3168 79.178 27.5232C79.8011 27.5975 80.3568 27.4107 80.9369 27.2533C82.6421 26.7907 84.3491 26.3312 86.0722 25.9392C86.673 25.802 87.3226 25.8376 87.9492 25.8459C88.5221 25.8536 88.8999 26.1762 89.1051 26.6964C89.3275 27.2599 89.1914 27.527 88.5809 27.6565C88.2464 27.7278 87.9048 27.7669 87.5664 27.8206C87.397 27.8475 87.2262 27.8674 87.059 27.9037C86.8939 27.9393 86.7321 27.992 86.4489 28.0702C87.2814 28.3052 88.0079 28.4875 88.7166 28.7207C89.0625 28.8348 89.4127 28.9993 89.6934 29.2217C90.0927 29.5373 90.107 30.1989 89.7056 30.3755C88.9683 30.6999 88.3657 31.3161 87.4808 31.3357C86.7095 31.3528 85.94 31.4505 85.1687 31.4631C83.509 31.4903 81.8486 31.5057 80.1889 31.4875C79.0083 31.475 78.0791 31.9641 77.3368 32.7929C76.8126 33.3784 76.3166 34.004 75.9123 34.6723C72.8901 39.6718 69.9718 44.7269 67.2421 49.8866C66.3538 51.5656 65.233 53.1311 64.1659 54.7151C63.7935 55.2678 63.2972 55.7555 62.7966 56.2083C61.1297 57.7148 59.3275 57.9096 57.1489 56.5714C56.1875 55.981 55.3328 55.214 54.4723 54.4801C53.3741 53.5427 52.317 52.5599 51.2474 51.5914C51.015 51.3816 50.8045 51.2311 50.4392 51.2238C50.1363 51.2175 49.8391 50.9724 49.4925 50.8115Z" fill="black"/>
<path fill-rule="evenodd" clip-rule="evenodd" d="M31.9371 7.08945C31.5261 7.22073 31.1146 7.352 30.5882 7.51958C31.3821 7.59709 31.3821 7.59709 31.9371 7.08945ZM6.53099 10.4222C5.78833 10.085 5.02598 9.88389 4.19989 10.1342C4.97692 10.2302 5.75395 10.3262 6.53099 10.4222ZM29.0206 6.91908C28.2081 5.46111 27.3723 4.03003 26.2279 2.80808C25.0652 1.56728 23.6952 0.634402 21.9675 0.305523C20.7203 0.0681146 19.2539 0.687121 18.6681 1.6996C18.9184 1.539 19.1279 1.39795 19.3438 1.26668C20.7547 0.41096 22.8269 0.233951 24.3201 1.90349C24.6767 2.30254 25.0158 2.71731 25.3442 3.13836C25.8115 3.73746 26.2379 4.36764 26.7238 4.95174C27.3695 5.7275 28.0505 6.47638 29.0206 6.91908ZM17.5914 27.9115C17.3192 27.8354 17.1635 27.7743 17.0023 27.7495C15.4995 27.5188 14.2326 26.8139 13.2135 25.7595C12.3946 24.9118 11.6992 23.9468 10.983 23.0098C10.6249 22.5416 10.3664 22.0025 10.0223 21.5232C8.9953 20.0928 7.01332 19.3299 5.22364 19.6274C5.76541 20.1235 6.37164 20.5973 6.87224 21.1604C7.39468 21.7473 7.81721 22.419 8.27985 23.0562C8.62719 23.5348 8.95627 24.0261 9.31578 24.4953C10.1634 25.6024 11.1921 26.523 12.382 27.2747C13.2618 27.8305 14.214 28.1978 15.2592 28.2928C16.0198 28.3623 16.78 28.3577 17.5914 27.9115ZM35.4803 23.3407C33.9682 23.4703 32.722 22.9528 31.5783 22.1596C31.0366 21.7843 30.9094 21.4855 31.1497 21.3168C31.5547 21.0326 31.7377 21.4715 32.0202 21.6059C32.7618 21.9589 33.4916 22.3548 34.269 22.6103C35.0947 22.882 35.5928 22.5943 35.9999 21.8241C36.99 19.9514 37.2851 17.9058 37.5626 15.8564C37.6145 15.47 37.6249 15.0779 37.6661 14.6893C37.8304 13.1371 36.8547 11.7657 35.3088 11.4853C34.0767 11.2619 32.8531 11.3844 31.6858 11.8512C30.3634 12.3798 29.711 13.4052 29.5137 14.741C29.4159 15.4033 29.3511 16.0708 29.2558 16.7335C29.2179 16.9953 29.2626 17.3786 28.8845 17.3832C28.703 17.3853 28.4981 17.1231 28.3395 16.9496C28.1597 16.753 28.0194 16.5215 27.8647 16.3089C27.199 16.7275 27.0379 17.1936 27.3945 17.732C27.5707 17.997 27.8575 18.2808 28.1515 18.3639C28.8082 18.5496 28.9132 18.9658 28.8412 19.5146C28.6138 21.2561 28.3989 22.9996 28.1422 24.7372C27.9915 25.757 27.7727 26.7674 27.5782 27.7813C27.5417 27.9716 27.5045 28.1716 27.4121 28.3378C27.358 28.4352 27.1843 28.5372 27.0816 28.5218C26.9774 28.5064 26.8227 28.3542 26.8169 28.2551C26.8026 28.011 26.851 27.7611 26.8932 27.5167C27.0064 26.8568 27.1224 26.1973 27.2513 25.5409C27.3315 25.1332 27.17 24.8594 26.8463 24.6077C25.6937 23.7098 24.5317 23.7318 23.4578 24.7194C23.0836 25.0633 22.7402 25.4404 22.3957 25.8133C21.4085 26.8805 20.2673 27.6717 18.7465 27.8204C18.5539 27.8393 18.3569 27.9136 18.1826 28.0009C16.3997 28.8922 14.6358 28.7253 12.9113 27.8714C11.272 27.0597 9.9614 25.8621 8.89826 24.4084C8.41628 23.7503 8.01344 23.0331 7.49602 22.404C6.87331 21.6471 6.21946 20.8972 5.47644 20.2572C5.02419 19.8672 4.40614 19.5635 3.81495 19.4403C1.79753 19.0203 0.735819 17.7508 0.243101 15.9043C-0.0652062 14.7483 -0.108534 13.5895 0.278193 12.4427C0.617653 11.4365 1.3023 10.7815 2.29812 10.3007C3.92023 9.5173 5.49506 9.62832 7.11359 10.2075C8.32998 10.6429 9.56751 10.9404 10.8849 10.8712C11.9906 10.8133 12.8909 10.3674 13.5418 9.5358C14.0586 8.8756 14.4922 8.14417 14.8868 7.40542C15.3749 6.49105 15.7283 5.50615 16.2425 4.60714C16.8387 3.5636 17.4592 2.51307 18.2241 1.58648C19.5655 -0.0383698 21.3319 -0.392736 23.3131 0.420735C24.8855 1.06662 26.1373 2.1182 27.1278 3.45048C27.8156 4.37532 28.4308 5.35184 29.0639 6.31474C29.7271 7.32372 29.9974 7.41589 31.1887 7.04756C32.2222 6.72811 33.2756 6.46731 34.2994 6.12062C36.7834 5.27887 39.6785 7.73464 39.4797 10.211C39.401 11.197 39.1603 12.1302 38.7303 13.0274C38.5781 13.3445 38.4606 13.7055 38.4449 14.0514C38.3729 15.6735 38.1437 17.2704 37.8082 18.8593C37.5407 20.1273 37.1476 21.35 36.4701 22.4599C36.2176 22.8739 36.2223 23.214 36.3487 23.6364C36.7752 25.0543 37.1794 26.4787 37.5819 27.9031C37.66 28.1804 37.8827 28.5773 37.4423 28.6824C37.0269 28.7816 36.999 28.327 36.9162 28.0561C36.5027 26.6924 36.1109 25.3227 35.707 23.9562C35.6526 23.7705 35.5734 23.5917 35.4803 23.3407Z" fill="black"/>
<path fill-rule="evenodd" clip-rule="evenodd" d="M34.9573 15.5191L35.5045 17.6296L34.7063 17.7074L34.9573 15.5191Z" fill="black"/>
<path fill-rule="evenodd" clip-rule="evenodd" d="M34.9587 15.5396L34.7109 17.7031L35.4997 17.6263L34.9587 15.5396ZM34.7062 17.7112C34.7055 17.7112 34.7044 17.7108 34.7037 17.7101C34.703 17.7091 34.7026 17.708 34.7026 17.707L34.9533 15.5186C34.9537 15.5169 34.9551 15.5155 34.9569 15.5155C34.9587 15.5155 34.9605 15.5166 34.9608 15.5179L35.508 17.6284C35.5083 17.6295 35.508 17.6309 35.5076 17.6316C35.5069 17.6326 35.5058 17.633 35.5047 17.6333L34.7069 17.7112H34.7062Z" fill="black"/>
<path fill-rule="evenodd" clip-rule="evenodd" d="M34.3265 13.9693C34.3265 13.9693 34.3595 14.6155 34.2127 14.751C33.5968 14.6847 32.2103 14.9078 31.5149 15.207C31.7885 14.588 34.3265 13.9693 34.3265 13.9693Z" fill="black"/>
<path fill-rule="evenodd" clip-rule="evenodd" d="M34.3228 13.9737C34.2645 13.9883 33.6561 14.1402 33.0244 14.3591C32.1604 14.6594 31.6419 14.9495 31.5223 15.1995C32.2005 14.9111 33.5769 14.6793 34.2111 14.7474C34.3475 14.6178 34.3253 14.0313 34.3228 13.9737ZM31.5148 15.2106C31.5137 15.2106 31.513 15.2099 31.5123 15.2093C31.5108 15.2082 31.5108 15.2068 31.5112 15.2051C31.6251 14.9478 32.1335 14.6608 33.0219 14.3525C33.6833 14.1231 34.3193 13.967 34.3253 13.9657C34.3268 13.9653 34.3278 13.9657 34.3286 13.9664C34.3296 13.9667 34.3304 13.9677 34.3304 13.9688C34.3314 13.9953 34.3619 14.6185 34.215 14.7536C34.2143 14.7543 34.2129 14.755 34.2118 14.7547C33.5766 14.6859 32.1912 14.9202 31.5166 15.2103C31.5158 15.2103 31.5155 15.2106 31.5148 15.2106Z" fill="black"/>
<path fill-rule="evenodd" clip-rule="evenodd" d="M33.2655 16.8618C33.0671 16.8736 32.8694 16.8377 32.685 16.7783C32.7531 16.7979 32.8258 16.8087 32.9013 16.8087C33.2784 16.8087 33.5852 16.5461 33.5852 16.2239C33.5852 16.094 33.4818 15.9387 33.384 15.8311C33.8674 15.8744 34.2917 16.1199 34.4482 16.2208C34.3082 16.3828 33.8721 16.8254 33.2655 16.8618ZM32.2356 16.0633C32.2245 16.1188 32.2177 16.1796 32.2177 16.2239C32.2177 16.4578 32.3792 16.66 32.6116 16.7532C32.256 16.6247 31.9617 16.418 31.836 16.3217C31.9091 16.2609 32.0455 16.159 32.2356 16.0633ZM34.604 16.1457C34.5786 16.1272 33.972 15.6852 33.2597 15.6761C32.2808 15.6653 31.6903 16.2483 31.6652 16.2731C31.6509 16.2874 31.6434 16.3073 31.6441 16.3276C31.6448 16.3475 31.6541 16.3667 31.6695 16.38C31.7007 16.4068 32.4122 17.0122 33.1874 17.0122C33.2164 17.0122 33.2458 17.0112 33.2748 17.0094C34.088 16.9602 34.5986 16.277 34.6201 16.248C34.6441 16.2152 34.6369 16.1701 34.604 16.1457Z" fill="black"/>
<path fill-rule="evenodd" clip-rule="evenodd" d="M36.6031 16.7128C36.429 16.7247 36.2547 16.6831 36.095 16.6182C36.1225 16.6234 36.1505 16.6269 36.1784 16.6269C36.4824 16.6269 36.7291 16.386 36.7291 16.0899C36.7291 15.9604 36.6826 15.8389 36.5988 15.7429C36.6324 15.7408 36.6668 15.7398 36.7012 15.7398H36.7015C37.0847 15.7398 37.4356 16.0034 37.5584 16.1071C37.4492 16.2547 37.0951 16.6782 36.6031 16.7128ZM35.4561 16.2097C35.4959 16.1765 35.5557 16.1301 35.6327 16.0791C35.6477 16.2034 35.7025 16.3284 35.7892 16.43C35.8124 16.4579 35.8375 16.482 35.8636 16.504C35.6792 16.3979 35.5324 16.2771 35.4561 16.2097ZM37.712 16.0428C37.6927 16.0243 37.239 15.5917 36.7015 15.5917H36.7012C35.8694 15.5917 35.3136 16.1336 35.2904 16.1566C35.2613 16.1853 35.2613 16.2313 35.29 16.2603C35.2968 16.267 35.4544 16.4237 35.6946 16.5763C35.9936 16.7666 36.2779 16.8629 36.5404 16.8629C36.5651 16.8629 36.5895 16.8622 36.6138 16.8605C37.2863 16.8133 37.7056 16.1619 37.7232 16.1343C37.7418 16.105 37.7371 16.0669 37.712 16.0428Z" fill="black"/>
<path fill-rule="evenodd" clip-rule="evenodd" d="M35.3821 13.9692C35.3821 13.9692 35.3488 14.6155 35.496 14.7509C36.1115 14.6846 37.1031 14.8438 37.7985 15.1427C37.5249 14.524 35.3821 13.9692 35.3821 13.9692Z" fill="black"/>
<path fill-rule="evenodd" clip-rule="evenodd" d="M35.8035 14.7322C36.4172 14.7322 37.2143 14.8893 37.7912 15.1355C37.673 14.8855 37.2225 14.6065 36.4863 14.3272C35.951 14.1244 35.4393 13.9879 35.3856 13.9739C35.3834 14.0319 35.3612 14.6177 35.4977 14.7472C35.5922 14.7371 35.695 14.7322 35.8035 14.7322ZM37.7983 15.1466L37.7969 15.1463C37.1183 14.8548 36.1297 14.6861 35.4966 14.7546C35.4955 14.7549 35.4944 14.7542 35.4937 14.7539C35.4318 14.6966 35.3938 14.5475 35.3802 14.3094C35.3702 14.1328 35.3784 13.9704 35.3784 13.9687C35.3784 13.968 35.3791 13.9669 35.3799 13.9662C35.3809 13.9655 35.382 13.9652 35.3834 13.9655C35.3885 13.9669 35.9256 14.1066 36.4892 14.3202C37.0098 14.5179 37.6601 14.8205 37.8019 15.1414C37.8026 15.1428 37.8023 15.1445 37.8012 15.1456C37.8005 15.1463 37.7994 15.1466 37.7983 15.1466Z" fill="black"/>
<path fill-rule="evenodd" clip-rule="evenodd" d="M33.6501 18.4918C34.0286 18.841 34.3362 19.0351 34.849 19.0682C35.3618 19.1018 35.7209 18.9188 35.7209 18.9188C35.7209 18.9188 35.3106 19.5979 34.8146 19.7239C33.7891 19.9854 33.8374 19.2009 33.6501 18.4918Z" fill="black"/>
<path fill-rule="evenodd" clip-rule="evenodd" d="M33.6571 18.5034C33.6865 18.6151 33.7097 18.7289 33.7323 18.8389C33.8068 19.1992 33.877 19.54 34.123 19.6894C34.2841 19.7879 34.51 19.798 34.8137 19.7205C35.2685 19.6046 35.6559 19.0149 35.711 18.9276C35.6448 18.9583 35.3057 19.1015 34.8488 19.0721C34.3332 19.0383 34.0302 18.8462 33.6571 18.5034ZM34.456 19.7791C34.3217 19.7791 34.21 19.7512 34.119 19.6957C33.8702 19.5442 33.7996 19.2024 33.7248 18.8403C33.7015 18.7265 33.6771 18.6085 33.6467 18.4929C33.646 18.4912 33.6471 18.4898 33.6485 18.4887C33.6496 18.488 33.6517 18.488 33.6528 18.4894C34.0295 18.8365 34.3314 19.0309 34.8495 19.0645C35.3555 19.0976 35.7157 18.9175 35.7193 18.9157C35.7211 18.9147 35.7229 18.915 35.7236 18.9164C35.725 18.9175 35.725 18.9192 35.7243 18.9206C35.7204 18.9276 35.3075 19.6021 34.8158 19.7278C34.6812 19.7617 34.5616 19.7791 34.456 19.7791Z" fill="black"/>
</svg>
